<svg width="49" height="44" viewBox="0 0 49 44" fill="none" xmlns="http://www.w3.org/2000/svg">
<path d="M13.25 15.625L19.0838 21.25L30.75 10" stroke="black" stroke-width="1.5" stroke-linecap="round" stroke-linejoin="round"/>
<path d="M1.3 36.5C1.3 37.04 1.42 37.5167 1.66 37.93C1.90667 38.3433 2.22667 38.6667 2.62 38.9C3.01333 39.1333 3.44 39.25 3.9 39.25C4.23333 39.25 4.53667 39.2067 4.81 39.12C5.09 39.0333 5.34333 38.9133 5.57 38.76C5.79667 38.6 5.99 38.4167 6.15 38.21V39.33C5.85667 39.59 5.53667 39.7833 5.19 39.91C4.84333 40.0367 4.41333 40.1 3.9 40.1C3.41333 40.1 2.95667 40.0133 2.53 39.84C2.11 39.66 1.74 39.41 1.42 39.09C1.1 38.7633 0.85 38.38 0.67 37.94C0.49 37.5 0.4 37.02 0.4 36.5C0.4 35.98 0.49 35.5 0.67 35.06C0.85 34.62 1.1 34.24 1.42 33.92C1.74 33.5933 2.11 33.3433 2.53 33.17C2.95667 32.99 3.41333 32.9 3.9 32.9C4.41333 32.9 4.84333 32.9633 5.19 33.09C5.53667 33.2167 5.85667 33.41 6.15 33.67V34.79C5.99 34.5833 5.79667 34.4033 5.57 34.25C5.34333 34.09 5.09 33.9667 4.81 33.88C4.53667 33.7933 4.23333 33.75 3.9 33.75C3.44 33.75 3.01333 33.8667 2.62 34.1C2.22667 34.3333 1.90667 34.6567 1.66 35.07C1.42 35.4767 1.3 35.9533 1.3 36.5ZM7.1957 37.7C7.1957 37.2333 7.29904 36.82 7.5057 36.46C7.71904 36.1 8.0057 35.8167 8.3657 35.61C8.7257 35.4033 9.12904 35.3 9.5757 35.3C10.029 35.3 10.4324 35.4033 10.7857 35.61C11.1457 35.8167 11.429 36.1 11.6357 36.46C11.849 36.82 11.9557 37.2333 11.9557 37.7C11.9557 38.16 11.849 38.5733 11.6357 38.94C11.429 39.3 11.1457 39.5833 10.7857 39.79C10.4324 39.9967 10.029 40.1 9.5757 40.1C9.12904 40.1 8.7257 39.9967 8.3657 39.79C8.0057 39.5833 7.71904 39.3 7.5057 38.94C7.29904 38.5733 7.1957 38.16 7.1957 37.7ZM8.0057 37.7C8.0057 38.02 8.07237 38.3033 8.2057 38.55C8.3457 38.7967 8.53237 38.9933 8.7657 39.14C9.0057 39.28 9.2757 39.35 9.5757 39.35C9.8757 39.35 10.1424 39.28 10.3757 39.14C10.6157 38.9933 10.8024 38.7967 10.9357 38.55C11.0757 38.3033 11.1457 38.02 11.1457 37.7C11.1457 37.38 11.0757 37.0967 10.9357 36.85C10.8024 36.5967 10.6157 36.4 10.3757 36.26C10.1424 36.12 9.8757 36.05 9.5757 36.05C9.2757 36.05 9.0057 36.12 8.7657 36.26C8.53237 36.4 8.3457 36.5967 8.2057 36.85C8.07237 37.0967 8.0057 37.38 8.0057 37.7ZM19.3547 37.1V40H18.5547V37.2C18.5547 36.8067 18.4814 36.5167 18.3347 36.33C18.1947 36.1433 17.9747 36.05 17.6747 36.05C17.4547 36.05 17.2647 36.0967 17.1047 36.19C16.9447 36.2767 16.8214 36.4067 16.7347 36.58C16.648 36.7533 16.6047 36.96 16.6047 37.2V40H15.8047V37.2C15.8047 36.8067 15.7314 36.5167 15.5847 36.33C15.4447 36.1433 15.2247 36.05 14.9247 36.05C14.7047 36.05 14.5147 36.0967 14.3547 36.19C14.1947 36.2767 14.0714 36.4067 13.9847 36.58C13.898 36.7533 13.8547 36.96 13.8547 37.2V40H13.0547V35.4H13.8547V36.07C13.9947 35.81 14.168 35.6167 14.3747 35.49C14.588 35.3633 14.838 35.3 15.1247 35.3C15.4447 35.3 15.718 35.3767 15.9447 35.53C16.178 35.6767 16.348 35.8867 16.4547 36.16C16.6147 35.8733 16.8147 35.66 17.0547 35.52C17.2947 35.3733 17.568 35.3 17.8747 35.3C18.188 35.3 18.4547 35.37 18.6747 35.51C18.8947 35.65 19.0614 35.8567 19.1747 36.13C19.2947 36.3967 19.3547 36.72 19.3547 37.1ZM21.6074 42.2H20.8074V35.4H21.6074V42.2ZM25.4574 37.7C25.4574 38.1933 25.3541 38.62 25.1474 38.98C24.9408 39.34 24.6641 39.6167 24.3174 39.81C23.9774 40.0033 23.5974 40.1 23.1774 40.1C22.7974 40.1 22.4608 40.0033 22.1674 39.81C21.8808 39.6167 21.6541 39.34 21.4874 38.98C21.3274 38.62 21.2474 38.1933 21.2474 37.7C21.2474 37.2 21.3274 36.7733 21.4874 36.42C21.6541 36.06 21.8808 35.7833 22.1674 35.59C22.4608 35.3967 22.7974 35.3 23.1774 35.3C23.5974 35.3 23.9774 35.3967 24.3174 35.59C24.6641 35.7833 24.9408 36.06 25.1474 36.42C25.3541 36.7733 25.4574 37.2 25.4574 37.7ZM24.6474 37.7C24.6474 37.3467 24.5741 37.0467 24.4274 36.8C24.2874 36.5533 24.0974 36.3667 23.8574 36.24C23.6241 36.1133 23.3641 36.05 23.0774 36.05C22.8441 36.05 22.6141 36.1133 22.3874 36.24C22.1608 36.3667 21.9741 36.5533 21.8274 36.8C21.6808 37.0467 21.6074 37.3467 21.6074 37.7C21.6074 38.0533 21.6808 38.3533 21.8274 38.6C21.9741 38.8467 22.1608 39.0333 22.3874 39.16C22.6141 39.2867 22.8441 39.35 23.0774 39.35C23.3641 39.35 23.6241 39.2867 23.8574 39.16C24.0974 39.0333 24.2874 38.8467 24.4274 38.6C24.5741 38.3533 24.6474 38.0533 24.6474 37.7ZM26.5605 32.2H27.3605V40H26.5605V32.2ZM30.6452 40.1C30.2186 40.1 29.8386 40 29.5052 39.8C29.1786 39.5933 28.9219 39.31 28.7352 38.95C28.5552 38.59 28.4652 38.1733 28.4652 37.7C28.4652 37.22 28.5586 36.8 28.7452 36.44C28.9386 36.08 29.2052 35.8 29.5452 35.6C29.8919 35.4 30.2919 35.3 30.7452 35.3C31.1986 35.3 31.5852 35.3967 31.9052 35.59C32.2319 35.7767 32.4819 36.0467 32.6552 36.4C32.8286 36.7533 32.9152 37.1733 32.9152 37.66C32.9152 37.7067 32.9119 37.7567 32.9052 37.81C32.9052 37.8567 32.9052 37.8867 32.9052 37.9H28.9752V37.22H32.2752L31.9552 37.68C31.9752 37.6467 31.9952 37.5967 32.0152 37.53C32.0352 37.4567 32.0452 37.3967 32.0452 37.35C32.0452 37.0767 31.9886 36.84 31.8752 36.64C31.7686 36.44 31.6186 36.2833 31.4252 36.17C31.2319 36.0567 31.0052 36 30.7452 36C30.4386 36 30.1752 36.0667 29.9552 36.2C29.7419 36.3267 29.5752 36.5133 29.4552 36.76C29.3419 37 29.2819 37.2967 29.2752 37.65C29.2752 38.01 29.3319 38.3167 29.4452 38.57C29.5586 38.8233 29.7252 39.0167 29.9452 39.15C30.1652 39.2833 30.4319 39.35 30.7452 39.35C31.0586 39.35 31.3352 39.2833 31.5752 39.15C31.8152 39.01 32.0186 38.8 32.1852 38.52L32.8352 38.93C32.5952 39.3167 32.2919 39.61 31.9252 39.81C31.5652 40.0033 31.1386 40.1 30.6452 40.1ZM33.3117 35.4H35.6117V36.15H33.3117V35.4ZM34.0617 33.8H34.8617V40H34.0617V33.8ZM38.1941 40.1C37.7674 40.1 37.3874 40 37.0541 39.8C36.7274 39.5933 36.4707 39.31 36.2841 38.95C36.1041 38.59 36.0141 38.1733 36.0141 37.7C36.0141 37.22 36.1074 36.8 36.2941 36.44C36.4874 36.08 36.7541 35.8 37.0941 35.6C37.4407 35.4 37.8407 35.3 38.2941 35.3C38.7474 35.3 39.1341 35.3967 39.4541 35.59C39.7807 35.7767 40.0307 36.0467 40.2041 36.4C40.3774 36.7533 40.4641 37.1733 40.4641 37.66C40.4641 37.7067 40.4607 37.7567 40.4541 37.81C40.4541 37.8567 40.4541 37.8867 40.4541 37.9H36.5241V37.22H39.8241L39.5041 37.68C39.5241 37.6467 39.5441 37.5967 39.5641 37.53C39.5841 37.4567 39.5941 37.3967 39.5941 37.35C39.5941 37.0767 39.5374 36.84 39.4241 36.64C39.3174 36.44 39.1674 36.2833 38.9741 36.17C38.7807 36.0567 38.5541 36 38.2941 36C37.9874 36 37.7241 36.0667 37.5041 36.2C37.2907 36.3267 37.1241 36.5133 37.0041 36.76C36.8907 37 36.8307 37.2967 36.8241 37.65C36.8241 38.01 36.8807 38.3167 36.9941 38.57C37.1074 38.8233 37.2741 39.0167 37.4941 39.15C37.7141 39.2833 37.9807 39.35 38.2941 39.35C38.6074 39.35 38.8841 39.2833 39.1241 39.15C39.3641 39.01 39.5674 38.8 39.7341 38.52L40.3841 38.93C40.1441 39.3167 39.8407 39.61 39.4741 39.81C39.1141 40.0033 38.6874 40.1 38.1941 40.1ZM45.0105 32.2H45.8105V40H45.0105V32.2ZM41.1605 37.7C41.1605 37.2 41.2639 36.7733 41.4705 36.42C41.6772 36.06 41.9539 35.7833 42.3005 35.59C42.6472 35.3967 43.0272 35.3 43.4405 35.3C43.8272 35.3 44.1639 35.3967 44.4505 35.59C44.7372 35.7833 44.9605 36.06 45.1205 36.42C45.2872 36.7733 45.3705 37.2 45.3705 37.7C45.3705 38.1933 45.2872 38.62 45.1205 38.98C44.9605 39.34 44.7372 39.6167 44.4505 39.81C44.1639 40.0033 43.8272 40.1 43.4405 40.1C43.0272 40.1 42.6472 40.0033 42.3005 39.81C41.9539 39.6167 41.6772 39.34 41.4705 38.98C41.2639 38.62 41.1605 38.1933 41.1605 37.7ZM41.9705 37.7C41.9705 38.0533 42.0405 38.3533 42.1805 38.6C42.3272 38.8467 42.5205 39.0333 42.7605 39.16C43.0005 39.2867 43.2605 39.35 43.5405 39.35C43.7739 39.35 44.0039 39.2867 44.2305 39.16C44.4572 39.0333 44.6439 38.8467 44.7905 38.6C44.9372 38.3533 45.0105 38.0533 45.0105 37.7C45.0105 37.3467 44.9372 37.0467 44.7905 36.8C44.6439 36.5533 44.4572 36.3667 44.2305 36.24C44.0039 36.1133 43.7739 36.05 43.5405 36.05C43.2605 36.05 43.0005 36.1133 42.7605 36.24C42.5205 36.3667 42.3272 36.5533 42.1805 36.8C42.0405 37.0467 41.9705 37.3467 41.9705 37.7Z" fill="black"/>
</svg>
